HIERARCHY
ROOT Hips
{
	OFFSET 0.00000 0.00000 0.00000
	CHANNELS 6 Xposition Yposition Zposition Zrotation Yrotation Xrotation 
	JOINT LHipJoint
	{
		OFFSET 0 0 0
		CHANNELS 3 Zrotation Yrotation Xrotation
		JOINT LeftUpLeg
		{
			OFFSET 1.36337 -1.57426 1.11036
			CHANNELS 3 Zrotation Yrotation Xrotation
			JOINT LeftLeg
			{
				OFFSET 2.38468 -6.55187 0.00000
				CHANNELS 3 Zrotation Yrotation Xrotation
				JOINT LeftFoot
				{
					OFFSET 2.37166 -6.51609 0.00000
					CHANNELS 3 Zrotation Yrotation Xrotation
					JOINT LeftToeBase
					{
						OFFSET 0.29078 -0.79891 2.01393
						CHANNELS 3 Zrotation Yrotation Xrotation
						End Site
						{
							OFFSET 0.00000 -0.00000 1.07924
						}
					}
				}
			}
		}
	}
	JOINT RHipJoint
	{
		OFFSET 0 0 0
		CHANNELS 3 Zrotation Yrotation Xrotation
		JOINT RightUpLeg
		{
			OFFSET -1.36349 -1.57426 1.11036
			CHANNELS 3 Zrotation Yrotation Xrotation
			JOINT RightLeg
			{
				OFFSET -2.29562 -6.30717 0.00000
				CHANNELS 3 Zrotation Yrotation Xrotation
				JOINT RightFoot
				{
					OFFSET -2.40985 -6.62100 0.00000
					CHANNELS 3 Zrotation Yrotation Xrotation
					JOINT RightToeBase
					{
						OFFSET -0.23197 -0.63733 1.92232
						CHANNELS 3 Zrotation Yrotation Xrotation
						End Site
						{
							OFFSET -0.00000 -0.00000 1.01562
						}
					}
				}
			}
		}
	}
	JOINT LowerBack
	{
		OFFSET 0 0 0
		CHANNELS 3 Zrotation Yrotation Xrotation
		JOINT Spine
		{
			OFFSET -0.08565 2.03602 -0.24562
			CHANNELS 3 Zrotation Yrotation Xrotation
			JOINT Spine1
			{
				OFFSET -0.00036 2.05693 0.00216
				CHANNELS 3 Zrotation Yrotation Xrotation
				JOINT Neck
				{
					OFFSET 0 0 0
					CHANNELS 3 Zrotation Yrotation Xrotation
					JOINT Neck1
					{
						OFFSET -0.03664 1.69515 0.31789
						CHANNELS 3 Zrotation Yrotation Xrotation
						JOINT Head
						{
							OFFSET 0.00932 1.70181 -0.46013
							CHANNELS 3 Zrotation Yrotation Xrotation
							End Site
							{
								OFFSET 0.01243 1.77620 -0.19377
							}
						}
					}
				}
				JOINT LeftShoulder
				{
					OFFSET 0 0 0
					CHANNELS 3 Zrotation Yrotation Xrotation
					JOINT LeftArm
					{
						OFFSET 3.74344 0.81315 -0.36647
						CHANNELS 3 Zrotation Yrotation Xrotation
						JOINT LeftForeArm
						{
							OFFSET 4.97185 -0.00000 -0.00000
							CHANNELS 3 Zrotation Yrotation Xrotation
							JOINT LeftHand
							{
								OFFSET 3.35811 -0.00000 0.00000
								CHANNELS 3 Zrotation Yrotation Xrotation
								JOINT LeftFingerBase
								{
									OFFSET 0 0 0
									CHANNELS 3 Zrotation Yrotation Xrotation
									JOINT LeftHandIndex1
									{
										OFFSET 0.62278 -0.00000 0.00000
										CHANNELS 3 Zrotation Yrotation Xrotation
										End Site
										{
											OFFSET 0.50210 -0.00000 0.00000
										}
									}
								}
								JOINT LThumb
								{
									OFFSET 0 0 0
									CHANNELS 3 Zrotation Yrotation Xrotation
									End Site
									{
										OFFSET 0.50976 -0.00000 0.50976
									}
								}
							}
						}
					}
				}
				JOINT RightShoulder
				{
					OFFSET 0 0 0
					CHANNELS 3 Zrotation Yrotation Xrotation
					JOINT RightArm
					{
						OFFSET -3.75385 0.50666 -0.06525
						CHANNELS 3 Zrotation Yrotation Xrotation
						JOINT RightForeArm
						{
							OFFSET -4.96493 -0.00000 -0.00000
							CHANNELS 3 Zrotation Yrotation Xrotation
							JOINT RightHand
							{
								OFFSET -3.34929 -0.00000 0.00000
								CHANNELS 3 Zrotation Yrotation Xrotation
								JOINT RightFingerBase
								{
									OFFSET 0 0 0
									CHANNELS 3 Zrotation Yrotation Xrotation
									JOINT RightHandIndex1
									{
										OFFSET -0.63804 -0.00000 0.00000
										CHANNELS 3 Zrotation Yrotation Xrotation
										End Site
										{
											OFFSET -0.51441 -0.00000 0.00000
										}
									}
								}
								JOINT RThumb
								{
									OFFSET 0 0 0
									CHANNELS 3 Zrotation Yrotation Xrotation
									End Site
									{
										OFFSET -0.52226 -0.00000 0.52226
									}
								}
							}
						}
					}
				}
			}
		}
	}
}
MOTION
Frames: 11
Frame Time: .0083333
6.6043 15.6830 -1.6575 96.9793 -84.0836 -91.1565 0.0000 0.0000 0.0000 -12.8966 -0.2447 -37.3531 7.5621 15.7875 50.9694 0.8331 -3.6395 -16.4029 0.1299 -2.3236 -6.4007 0.0000 0.0000 0.0000 0.7808 -2.2783 -30.1053 -7.1938 -15.4930 49.6036 -1.5456 -0.0332 -23.5391 -0.2151 2.9855 -8.2385 -1.6905 1.9326 30.9489 -1.7118 1.0370 7.1762 -1.2982 0.2179 -8.8598 2.7129 9.0372 -27.7221 -9.8847 14.9594 26.8308 -1.3544 5.0909 15.0453 -0.0000 0.0000 0.0000 -83.1874 -15.3007 44.1532 56.9616 -55.4444 -31.8256 -0.0000 0.0000 -10.6961 22.4622 -13.1970 -5.3921 -7.1250 0.0000 -0.0000 -3.3525 15.7582 2.3201 -0.0000 0.0000 0.0000 86.7965 9.6581 25.7507 -65.7139 57.6496 -39.1336 0.0000 -0.0000 -13.7930 -14.8078 -27.7144 7.0089 7.1250 -0.0000 -0.0000 17.3188 -57.6488 -5.4723
6.6221 15.6823 -1.7014 93.7276 -83.7781 -87.6888 0.0000 0.0000 0.0000 -13.0856 -0.4984 -37.6547 7.5255 15.7589 50.8349 0.8036 -3.6953 -16.0930 0.1332 -2.3526 -6.4813 0.0000 0.0000 0.0000 0.5755 -2.4889 -30.5371 -7.2815 -15.5644 49.9310 -1.5737 0.0158 -23.7370 -0.1895 2.8037 -7.7326 -1.8756 1.9015 30.9696 -1.7991 0.9429 7.0250 -1.2587 0.1836 -9.0455 2.9753 9.1983 -27.5547 -10.0781 15.1868 27.1670 -1.4313 5.1677 15.2295 0.0000 -0.0000 0.0000 -83.1773 -15.0688 43.9131 57.2196 -55.5224 -32.0382 -0.0000 0.0000 -10.1232 23.1433 -11.9768 -5.0688 -7.1250 0.0000 -0.0000 -2.8226 16.9989 1.8763 0.0000 -0.0000 0.0000 86.8786 9.5422 25.7661 -65.6687 57.6404 -39.0954 0.0000 -0.0000 -13.8264 -15.1740 -27.1941 7.0654 7.1250 -0.0000 -0.0000 16.6186 -57.2271 -5.0722
6.6353 15.6786 -1.7444 91.1139 -83.5605 -84.9750 0.0000 0.0000 0.0000 -13.1893 -0.6062 -37.7710 7.4853 15.7273 50.6867 0.7778 -3.8282 -15.8095 0.1339 -2.3587 -6.4981 0.0000 0.0000 0.0000 0.4823 -2.6760 -30.8294 -7.3670 -15.6333 50.2491 -1.5923 -0.0383 -23.8961 -0.1929 2.8281 -7.8007 -1.9269 1.8840 30.8966 -1.8550 0.9025 7.0589 -1.2752 0.1658 -8.9721 3.1514 9.3141 -27.5774 -10.2918 15.3909 27.4464 -1.5020 5.2182 15.4244 0.0000 0.0000 0.0000 -83.1464 -15.2019 43.7834 57.3684 -55.5669 -32.1608 -0.0000 0.0000 -10.4059 21.0375 -12.8837 -4.9016 -7.1250 0.0000 -0.0000 -4.3218 16.2356 2.9496 0.0000 0.0000 0.0000 86.9020 9.6150 25.7494 -65.6961 57.6460 -39.1185 0.0000 -0.0000 -13.8408 -15.1030 -27.2116 7.0352 7.1250 -0.0000 -0.0000 16.7026 -57.2289 -5.0996
6.6435 15.6745 -1.7876 90.0279 -83.2203 -83.8838 0.0000 0.0000 0.0000 -13.4440 -0.5816 -37.7389 7.4265 15.6807 50.4694 0.7586 -3.9116 -15.5987 0.1543 -2.5310 -6.9755 0.0000 0.0000 0.0000 0.2496 -2.7643 -31.0124 -7.4455 -15.6959 50.5398 -1.5919 -0.1290 -23.9231 -0.2216 3.0305 -8.3636 -2.0905 1.9628 30.8547 -1.9660 0.9349 7.1499 -1.3156 0.1800 -8.8484 3.1138 9.3676 -27.6128 -10.1626 15.4836 27.7708 -1.4242 5.2497 15.5699 0.0000 -0.0000 0.0000 -83.1161 -15.5270 43.7372 57.2161 -55.5213 -32.0352 -0.0000 0.0000 -11.0594 20.4048 -13.5338 -4.9752 -7.1250 0.0000 -0.0000 -4.7816 15.6104 3.3303 0.0000 -0.0000 0.0000 86.9503 9.6912 25.6452 -65.8070 57.6686 -39.2122 0.0000 -0.0000 -13.7507 -14.8936 -27.1386 6.9171 7.1250 -0.0000 -0.0000 16.8746 -57.1147 -5.1072
6.6396 15.6707 -1.8541 91.7228 -83.5033 -85.7230 0.0000 0.0000 0.0000 -12.8791 -0.0929 -37.6560 7.3706 15.6362 50.2626 0.7322 -4.0897 -15.3009 0.1729 -2.6790 -7.3862 0.0000 0.0000 0.0000 0.8462 -2.1021 -30.8650 -7.4920 -15.7326 50.7116 -1.5989 -0.5553 -24.1243 -0.2354 3.1228 -8.6209 -2.1833 2.2219 30.9025 -1.8305 1.2429 7.1951 -1.2234 0.3234 -8.8220 3.2104 9.4757 -27.3568 -10.3964 15.6767 27.7575 -1.4993 5.3157 15.5670 -0.0000 -0.0000 0.0000 -83.2003 -15.5916 43.6023 57.1535 -55.5025 -31.9837 -0.0000 0.0000 -11.2459 21.6411 -13.5057 -5.2939 -7.1250 0.0000 -0.0000 -3.9315 15.5148 2.7432 -0.0000 -0.0000 0.0000 86.9453 9.6164 25.5863 -65.9242 57.6923 -39.3113 0.0000 -0.0000 -13.7667 -14.8138 -27.1210 6.8746 7.1250 -0.0000 -0.0000 16.9462 -57.0809 -5.1158
6.6320 15.6764 -1.8872 89.7855 -83.2976 -83.9062 0.0000 0.0000 0.0000 -13.0481 -0.1877 -37.3668 7.3168 15.5929 50.0624 0.7262 -4.0415 -15.2401 0.1911 -2.8153 -7.7648 0.0000 0.0000 0.0000 0.7282 -2.4738 -30.7153 -7.5163 -15.7517 50.8011 -1.6145 -0.3766 -24.1783 -0.2306 3.0906 -8.5310 -2.1521 2.1703 30.9308 -1.8898 1.1759 7.2549 -1.2830 0.2893 -8.7654 3.2954 9.6281 -27.2992 -10.4659 15.9150 27.9587 -1.4901 5.4014 15.6879 0.0000 0.0000 0.0000 -83.3083 -15.5027 43.3717 57.3688 -55.5670 -32.1612 -0.0000 0.0000 -11.1372 22.5005 -13.1788 -5.3950 -7.1250 0.0000 -0.0000 -3.3253 15.7737 2.3001 0.0000 0.0000 0.0000 86.8938 9.5822 25.6510 -66.1705 57.7417 -39.5195 0.0000 -0.0000 -13.8705 -14.8535 -27.7899 7.0488 7.1250 -0.0000 -0.0000 17.3191 -57.7309 -5.5069
6.6211 15.6869 -1.9150 88.3555 -83.2194 -82.5642 0.0000 0.0000 0.0000 -13.1108 -0.2334 -37.0879 7.2736 15.5580 49.9015 0.7254 -3.9981 -15.2350 0.2080 -2.9365 -8.1019 0.0000 0.0000 0.0000 0.7299 -2.8686 -30.5867 -7.5295 -15.7620 50.8496 -1.6330 -0.1129 -24.2260 -0.2127 2.9691 -8.1927 -1.9594 2.0756 30.8669 -1.9473 1.1090 7.3297 -1.4313 0.2531 -8.6447 3.3760 9.8315 -27.3123 -10.4494 16.2188 28.2880 -1.4278 5.5145 15.8791 0.0000 -0.0000 0.0000 -83.3737 -15.4823 43.1344 57.5174 -55.6113 -32.2837 -0.0000 0.0000 -11.1237 22.4131 -12.9810 -5.2931 -7.1250 0.0000 -0.0000 -3.3759 15.9944 2.3191 0.0000 -0.0000 0.0000 86.8433 9.6019 25.8195 -66.4658 57.8002 -39.7693 0.0000 -0.0000 -13.9911 -15.0618 -28.4428 7.3038 7.1250 -0.0000 -0.0000 17.5238 -58.4009 -5.8594
6.6346 15.6851 -1.9651 84.6225 -83.1642 -78.7232 0.0000 0.0000 0.0000 -12.9409 -0.5054 -37.2201 7.2349 15.5265 49.7571 0.6984 -4.1039 -14.9330 0.2009 -2.8862 -7.9619 0.0000 0.0000 0.0000 0.9222 -3.1946 -30.7867 -7.5657 -15.7904 50.9829 -1.6515 -0.1355 -24.3706 -0.1962 2.8521 -7.8671 -1.8618 1.9358 30.8595 -1.9529 0.9693 7.2865 -1.4433 0.1898 -8.6901 3.6321 9.9995 -27.0952 -10.5707 16.4171 28.4479 -1.4807 5.6045 15.9691 0.0000 0.0000 0.0000 -83.3616 -15.5108 42.9411 57.6007 -55.6359 -32.3525 -0.0000 0.0000 -11.2360 22.3740 -12.8984 -5.2500 -7.1250 0.0000 -0.0000 -3.3991 16.0869 2.3283 0.0000 0.0000 0.0000 86.8841 9.6635 25.9557 -66.4125 57.7897 -39.7242 0.0000 -0.0000 -14.0087 -15.0404 -28.2744 7.2539 7.1250 -0.0000 -0.0000 17.4357 -58.2353 -5.7589
6.6507 15.6823 -2.0174 81.3185 -82.9806 -75.3081 0.0000 0.0000 0.0000 -12.8489 -0.8526 -37.3665 7.1888 15.4889 49.5850 0.6664 -4.0923 -14.5784 0.1751 -2.6951 -7.4311 0.0000 0.0000 0.0000 1.0090 -3.4270 -31.0204 -7.6135 -15.8275 51.1582 -1.6716 -0.2037 -24.5422 -0.1899 2.8064 -7.7403 -1.8477 1.8507 30.8811 -1.9952 0.8673 7.2342 -1.4633 0.1451 -8.7605 3.8349 10.1447 -26.9497 -10.6559 16.5928 28.5891 -1.5129 5.6833 16.0543 -0.0000 0.0000 0.0000 -83.3781 -15.5022 42.8454 57.7661 -55.6847 -32.4891 -0.0000 0.0000 -11.3266 22.5574 -12.8960 -5.2966 -7.1250 0.0000 -0.0000 -3.2723 16.0706 2.2423 -0.0000 0.0000 0.0000 86.9629 9.6765 25.9588 -66.3653 57.7804 -39.6843 0.0000 -0.0000 -13.9479 -14.6825 -28.3563 7.0938 7.1250 -0.0000 -0.0000 17.8630 -58.2349 -5.9057
6.6668 15.6830 -2.0683 78.1013 -82.9136 -72.0120 0.0000 0.0000 0.0000 -12.6452 -1.1079 -37.4640 7.1317 15.4418 49.3708 0.6347 -4.0280 -14.2225 0.1826 -2.7524 -7.5903 0.0000 0.0000 0.0000 1.2525 -3.6524 -31.2177 -7.6717 -15.8724 51.3714 -1.6911 -0.2556 -24.7028 -0.1748 2.6931 -7.4255 -1.6910 1.7728 30.9325 -1.9811 0.8244 7.1756 -1.5246 0.1261 -8.8502 4.0028 10.2915 -26.8260 -10.8038 16.8180 28.7848 -1.5543 5.7633 16.1829 -0.0000 -0.0000 0.0000 -83.4991 -15.4336 42.8153 57.9322 -55.7333 -32.6263 -0.0000 0.0000 -11.2972 22.7573 -12.9758 -5.3808 -7.1250 0.0000 -0.0000 -3.1383 15.9642 2.1574 -0.0000 -0.0000 0.0000 86.9733 9.6015 25.8969 -66.5148 57.8098 -39.8108 0.0000 -0.0000 -14.0150 -14.3844 -28.7269 7.0272 7.1250 -0.0000 -0.0000 18.4219 -58.5215 -6.2265
6.6583 15.6859 -2.1261 79.9765 -83.0026 -74.0257 0.0000 0.0000 0.0000 -12.4256 -0.6951 -37.2363 7.0556 15.3785 49.0843 0.6215 -4.0460 -14.0686 0.2145 -2.9819 -8.2284 0.0000 0.0000 0.0000 1.5276 -3.1496 -31.1136 -7.7142 -15.9049 51.5265 -1.7079 -0.3957 -24.8738 -0.1351 2.3687 -6.5258 -1.8810 2.0658 30.9469 -1.9505 1.1312 7.2582 -1.4928 0.2686 -8.7624 3.8098 10.2979 -26.6988 -10.5718 16.8360 28.8643 -1.4286 5.7866 16.1402 -0.0000 0.0000 0.0000 -83.6280 -15.4644 42.8347 58.0667 -55.7724 -32.7375 -0.0000 0.0000 -11.1865 22.7331 -13.0702 -5.4127 -7.1250 0.0000 -0.0000 -3.1597 15.8655 2.1789 -0.0000 0.0000 0.0000 87.0022 9.6418 25.7320 -66.5394 57.8146 -39.8316 0.0000 -0.0000 -14.1693 -14.1422 -28.7558 6.9114 7.1250 -0.0000 -0.0000 18.6943 -58.4953 -6.3109
